/* XPM */
static char *Free_Converter_com_bitcoin16_72443038[] = {
/* columns rows colors chars-per-pixel */
"16 16 205 2 ",
"   c #E67C00",
".  c #E6771C",
"X  c #E7781D",
"o  c #E87D1C",
"O  c #E87D20",
"+  c #EA7E21",
"@  c #EB7E21",
"#  c #E68004",
"$  c #E88100",
"%  c #E98200",
"&  c #E88400",
"*  c #E88800",
"=  c #E88900",
"-  c #EB8A00",
";  c #E98F08",
":  c #EA9300",
">  c #ED9300",
",  c #EA9501",
"<  c #ED9600",
"1  c #EE9600",
"2  c #EF9D01",
"3  c #EF9F00",
"4  c #ED9906",
"5  c #ED9C09",
"6  c #ED9E0B",
"7  c #EE980E",
"8  c #ED9A0E",
"9  c #ED9E0D",
"0  c #F09D00",
"q  c #F19D02",
"w  c #EC8F16",
"e  c #EC8E17",
"r  c #E9821C",
"t  c #EB8C1B",
"y  c #EB8A1E",
"u  c #EC8A1D",
"i  c #EC8D1C",
"p  c #EC9216",
"a  c #EC9D17",
"s  c #E89019",
"d  c #EB9419",
"f  c #E8911C",
"g  c #EC911D",
"h  c #EC901E",
"j  c #EBA603",
"k  c #EEA703",
"l  c #EFA405",
"z  c #EFA704",
"x  c #EDA506",
"c  c #EEA406",
"v  c #EFA906",
"b  c #EFA907",
"n  c #EFA309",
"m  c #ECA508",
"M  c #EEA60A",
"N  c #EEA70F",
"B  c #F1A100",
"V  c #F1A301",
"C  c #F1A501",
"Z  c #F2A400",
"A  c #F2A500",
"S  c #F2A700",
"D  c #F0A502",
"F  c #F1A604",
"G  c #F0A606",
"H  c #F0A706",
"J  c #F3A900",
"K  c #F2AA00",
"L  c #F2AB02",
"P  c #F1AC01",
"I  c #F0AD01",
"U  c #F3AD00",
"Y  c #F1AF00",
"T  c #F0AF02",
"R  c #F1AF03",
"E  c #F4AC00",
"W  c #F4AF00",
"Q  c #F3AA05",
"!  c #F1AD04",
"~  c #F0AC05",
"^  c #F3AD05",
"/  c #F0AE05",
"(  c #F2AD07",
")  c #F0A50E",
"_  c #F1AA09",
"`  c #F1AF0E",
"'  c #EFB200",
"]  c #F0B000",
"[  c #F4B000",
"{  c #F4B101",
"}  c #F5B201",
"|  c #F2B500",
" . c #F4B400",
".. c #F5B400",
"X. c #F4B600",
"o. c #F2BB01",
"O. c #F6BB00",
"+. c #F2BC00",
"@. c #F3BC00",
"#. c #F3BD00",
"$. c #F3BD01",
"%. c #F2BE01",
"&. c #F3BC02",
"*. c #F5BC00",
"=. c #F6BF01",
"-. c #F5BF03",
";. c #F1B806",
":. c #F2BD05",
">. c #F4BE06",
",. c #F8BA00",
"<. c #F0B308",
"1. c #F1B708",
"2. c #EEA111",
"3. c #EEA611",
"4. c #EA8620",
"5. c #EB8720",
"6. c #EA8525",
"7. c #EB8823",
"8. c #EC8920",
"9. c #EB8D20",
"0. c #EB8D22",
"q. c #EB8F24",
"w. c #EC9123",
"e. c #EE9923",
"r. c #E99738",
"t. c #F3B123",
"y. c #F6BB27",
"u. c #F4BE2E",
"i. c #F0B135",
"p. c #F3C200",
"a. c #F2C300",
"s. c #F2C500",
"d. c #F2C600",
"f. c #F5C400",
"g. c #F4C600",
"h. c #F5C700",
"j. c #F6C104",
"k. c #F2C705",
"l. c #F8C100",
"z. c #F8C102",
"x. c #F9C500",
"c. c #F8C401",
"v. c #F8C701",
"b. c #F8C305",
"n. c #F2C900",
"m. c #F3CA02",
"M. c #F3CA03",
"N. c #F6CA00",
"B. c #F7CE01",
"V. c #F7CD05",
"C. c #F7CE05",
"Z. c #F8C801",
"A. c #F9CA01",
"S. c #F8CB01",
"D. c #FACB00",
"F. c #FBCD00",
"G. c #F3D100",
"H. c #F5D400",
"J. c #F6D204",
"K. c #F7D305",
"L. c #FBD401",
"P. c #FAD501",
"I. c #FBD600",
"U. c #FDD500",
"Y. c #FCD600",
"T. c #F5D900",
"R. c #F5DB02",
"E. c #F5DF00",
"W. c #FDD800",
"Q. c #FDDB00",
"!. c #FBDE03",
"~. c #FDDC00",
"^. c #FCDE02",
"/. c #F6E402",
"(. c #F6E702",
"). c #F6E703",
"_. c #FFE300",
"`. c #FFE700",
"'. c #FFEE00",
"]. c #FFEF00",
"[. c #FFF000",
"{. c #F8DA27",
"}. c #F8DC28",
"|. c #FCE13E",
" X c #E99740",
".X c #EE9A4E",
"XX c #EBA668",
"oX c #F4BB66",
"OX c #EEA476",
"+X c #F1AE70",
"@X c #F1AA77",
"#X c #F1BF7C",
"$X c #FDE642",
"%X c #FAD664",
"&X c #F9DB6B",
"*X c #FDE464",
"=X c #FDE86A",
"-X c #FDF267",
";X c #FEF366",
":X c #FEF668",
">X c #FFF76A",
",X c #EDAB84",
"<X c #EEB58F",
"1X c #EFB888",
"2X c None",
/* pixels */
"2X2X2X2X2X&Xu.( _ i.#X2X2X2X2X2X",
"2X2X2X=X .A U [ U B < ; 1X2X2X2X",
"2X2X$XU  .b.,.{ A 0 ) F % XX2X2X",
"2X>X| >.Y.x.=.R.M.B p q.`   <X2X",
"2XN.+.`.D.B.).)./.R.N 7.4.z # 2X",
">X+.!.~.D.E.k.<.;.H.d.i @ a * ,X",
"}.g.[.Y.N.G.:.1.k 0 2.h u r :  X",
"J.V.].I.D.p.M.M.o.A h w.t X 6 f ",
"J.V.].I.F.g.+.+.d.p.M 9.y X 6 s ",
"{.g.].I.x.=.[ ( z T ' p 4.o , r.",
"-Xo.~.~.>.k M F 4 U T e @ d = OX",
"2Xf.+._.N.( z b b T 8 4.O m % 2X",
"2X-XU j.Y.z.U b l 5 0.6.3.& @X2X",
"2X2X|.J  .z.=.J 0 7 e.n * .X2X2X",
"2X2X2X*X[ A J U J 2 < < +X2X2X2X",
"2X2X2X2X2X%Xy.( Q t.oX2X2X2X2X2X"
};
