/* XPM */
static char *Free_Converter_com_bitcoin32_89623038[] = {
/* columns rows colors chars-per-pixel */
"32 32 138 2 ",
"   c #DF4E00",
".  c #DF5700",
"X  c #E04E00",
"o  c #E15500",
"O  c #E25E01",
"+  c #E36301",
"@  c #E66A03",
"#  c #E67502",
"$  c #E5720C",
"%  c #EA7B0C",
"&  c #E56C1E",
"*  c #E97C11",
"=  c #E7731E",
"-  c #E87719",
";  c #E67C1B",
":  c #E87B1D",
">  c #E67620",
",  c #E87B22",
"<  c #E37E29",
"1  c #EA8600",
"2  c #EB8D01",
"3  c #EA800B",
"4  c #EE9405",
"5  c #EE9B05",
"6  c #EB950D",
"7  c #EE9B0A",
"8  c #F19F00",
"9  c #F09908",
"0  c #E88015",
"q  c #E68F17",
"w  c #E98C17",
"e  c #E5831B",
"r  c #EA851C",
"t  c #EB8B1C",
"y  c #E69017",
"u  c #EB9415",
"i  c #EC9B15",
"p  c #EC921D",
"a  c #EE9B1A",
"s  c #EDA505",
"d  c #EEAA04",
"f  c #EDA30B",
"g  c #EEAB0B",
"h  c #F1A301",
"j  c #F2AC02",
"k  c #F1AC0C",
"l  c #EFB102",
"z  c #EEB10A",
"x  c #EEB90A",
"c  c #F3B302",
"v  c #F4BC01",
"b  c #F8BD00",
"n  c #F2B30D",
"m  c #F4BC0B",
"M  c #ECA312",
"N  c #EEAC12",
"B  c #EFA618",
"V  c #F1A612",
"C  c #F2AB13",
"Z  c #F0A718",
"A  c #EFB410",
"S  c #EFBC10",
"D  c #F2B614",
"F  c #F3BE10",
"G  c #F3B81D",
"H  c #EA8421",
"J  c #EC8E21",
"K  c #EC9221",
"L  c #E58433",
"P  c #E58830",
"I  c #ED8D33",
"U  c #E6893A",
"Y  c #ED9431",
"T  c #EA9F30",
"R  c #E5953B",
"E  c #E6983A",
"W  c #F3AF2F",
"Q  c #EFB024",
"!  c #F3C301",
"~  c #F8C400",
"^  c #F4CB01",
"/  c #FACC01",
"(  c #F2C50C",
")  c #F4CD0B",
"_  c #F9CB09",
"`  c #F5D502",
"'  c #FBD301",
"]  c #F5DA02",
"[  c #FCDC01",
"{  c #F5D30A",
"}  c #FFDE08",
"|  c #F7C615",
" . c #FBDC11",
".. c #F6E401",
"X. c #FDE300",
"o. c #F7E900",
"O. c #FEEC00",
"+. c #FFE509",
"@. c #F7F001",
"#. c #FFF401",
"$. c #FFFC00",
"%. c #FFFF0F",
"&. c #FFFF11",
"*. c #FDDB2C",
"=. c #F8C331",
"-. c #F9D937",
";. c #FFEB26",
":. c #FCE82E",
">. c #FFFD33",
",. c #E8954C",
"<. c #E99D59",
"1. c #F0B94A",
"2. c #E9AA5E",
"3. c #F5BE5D",
"4. c #F2A96D",
"5. c #F3B467",
"6. c #ECAE77",
"7. c #F4BB77",
"8. c #F4C540",
"9. c #F8D25E",
"0. c #FBDA60",
"q. c #F6D56E",
"w. c #F8DC6D",
"e. c #F2C97E",
"r. c #FFF561",
"t. c #FFF966",
"y. c #FEF368",
"u. c #FCE275",
"i. c #FFF279",
"p. c #EDB988",
"a. c #F4B884",
"s. c #EEBF90",
"d. c #F0C387",
"f. c #FBE481",
"g. c #FEF382",
"h. c #F1CFA1",
"j. c #F1D1AF",
"k. c None",
/* pixels */
"k.k.k.k.k.k.k.k.k.k.k.k.q.8.G c k Q 1.e.k.k.k.k.k.k.k.k.k.k.k.k.",
"k.k.k.k.k.k.k.k.k.w.| b c j j j j 8 4 1 2 T d.k.k.k.k.k.k.k.k.k.",
"k.k.k.k.k.k.k.f.~ ~ b j j j j j c j c c f 1 # J h.k.k.k.k.k.k.k.",
"k.k.k.k.k.k.-./ / k B k c c c c j j j j v v Z % # 2.k.k.k.k.k.k.",
"k.k.k.k.k. .' b i C ~ / ~ b v j j j h 8 7 k ( m w @ E k.k.k.k.k.",
"k.k.k.k. .X.n p ( [ / ~ b b c l j j h h 7 p J D _ p + R k.k.k.k.",
"k.k.k.:.X.n u [ [ / ~ ~ b j l ..m 4 8 8 7 i K H C { p O 2.k.k.k.",
"k.k.g.O.m q +.X./ / / b ~ ^ { @.' v c 8 6 a p K , C { 0 O j.k.k.",
"k.k.#.[ q ' X.' ' / ~ ^ ..@.$...o.o.] ^ f J K p t > F ( + ; k.k.",
"k.y.#.i A $.[ [ / ^ / ....o.] ] ] ] ] ] / i K K t r ; { a o s.k.",
"k.#.' u #.X.[ ' / / ` ] ..^ 6 ] z f ] ^ ' l H K p w = C ) O P k.",
"k.$.g A $.[ [ ' / ^ ` ` ..g 9 ..g 4 ^ ` ` ! w J J t r : ) u + k.",
"t.O.M { #.X.[ ' / ^ ^ ^ ] g s ] g 4 l d k f t J t w r & S A   p.",
">.] M O.X.[ [ ' / ^ ^ ^ ` v s ` g 4 h 4 u p p p t r r = B ( . <.",
"&.! N $.X.X.[ ' / ~ ! ^ ^ ^ ^ ^ c s h 5 i p K K t t r - y ( @ U ",
"$.m g $.X.X.[ ' ' / ! ! ! ! ^ ! ^ ^ v d i K K t t t r ; w ( % L ",
"$.x A $.X.X.[ ' / ~ ~ ~ ! ! ! v v ! ! ! d u K p t r r : r ( % < ",
"%.v N $.X.[ ' ' / / ~ b v v l v v v v l b s J J t t r : w ( # L ",
">.^ M @.X.X.[ / / / ~ ~ b v j v s d l l l j u J J r r = i ( O ,.",
"t.X.M X.X.[ ' ' / ~ v v l d c v 6 4 l l j j 6 H t r e & A F   6.",
"k.$.f ( #.[ [ ' ' c s l s 7 c c 7 4 d l d j 6 H t r r > ( M . k.",
"k.$.v M #.[ ' ' ' x s d d 7 j c 6 5 j g j d r J t r > u { $ - k.",
"k.r.X.i ( O.' ' / ~ d s j d k j f s d d v 6 r p t r & ( D X 4.k.",
"k.k.#.! a X.[ / / / v d d d d d l d c c 7 e K t t > M { $ @ k.k.",
"k.k.i.O.M M X.' / / ~ b d d f j k d s 6 t K K t , r ] a o a.k.k.",
"k.k.k.;.X.i k [ / ~ ~ b b c j j 6 4 4 u a K p H r { N O I k.k.k.",
"k.k.k.k.+.' i B ' / ~ b c c c j 5 h h i a K H u / D + * k.k.k.k.",
"k.k.k.k.k.} ' M a m ~ ~ v c c j j h 5 a J J C _ Z @ * k.k.k.k.k.",
"k.k.k.k.k.k.*./ c V V k c j j j h h 8 i C m m 6 @ Y k.k.k.k.k.k.",
"k.k.k.k.k.k.k.u./ b j j j j j j j j c c c 5 # 3 7.k.k.k.k.k.k.k.",
"k.k.k.k.k.k.k.k.k.0._ c j j j j j j h 2 1 p 5.k.k.k.k.k.k.k.k.k.",
"k.k.k.k.k.k.k.k.k.k.k.k.9.=.D j j C W 3.k.k.k.k.k.k.k.k.k.k.k.k."
};
