/* XPM */
static char *Free_Converter_com_bitcoin64_24923038[] = {
/* columns rows colors chars-per-pixel */
"64 64 168 2 ",
"   c #E6740E",
".  c #E77E0E",
"X  c #E8790D",
"o  c #E67512",
"O  c #E87714",
"+  c #E57C14",
"@  c #E97C14",
"#  c #E6771A",
"$  c #E57B19",
"%  c #E87C1A",
"&  c #E27D20",
"*  c #E7870D",
"=  c #EB850F",
"-  c #E98C0F",
";  c #EC9507",
":  c #EE9E04",
">  c #E7950E",
",  c #EB930A",
"<  c #EE9D0B",
"1  c #F09E04",
"2  c #F09E08",
"3  c #E48315",
"4  c #E98414",
"5  c #E68B15",
"6  c #EA8C14",
"7  c #E6831A",
"8  c #E9841B",
"9  c #E78B18",
"0  c #EB8C1D",
"q  c #E69214",
"w  c #EA9414",
"e  c #ED9B13",
"r  c #EC931E",
"t  c #ED9919",
"y  c #EFA303",
"u  c #EFAC04",
"i  c #EDA30B",
"p  c #ECAB0C",
"a  c #F1A401",
"s  c #F1AC03",
"d  c #F1A40A",
"f  c #F2AB0A",
"g  c #EFB002",
"h  c #EDB30D",
"j  c #EFBD0D",
"k  c #F3B302",
"l  c #F5BB01",
"z  c #F8BD02",
"x  c #F3B30C",
"c  c #F3BB0D",
"v  c #ECA312",
"b  c #EDAB11",
"n  c #F0A414",
"m  c #F2AA12",
"M  c #EEB211",
"N  c #F2B412",
"B  c #F3BC10",
"V  c #E3832A",
"C  c #EB852F",
"Z  c #EC8B28",
"A  c #E69120",
"S  c #ED9320",
"D  c #E89E26",
"F  c #E28A34",
"G  c #E18C3C",
"H  c #ED8D3D",
"J  c #EE9930",
"K  c #E69A38",
"L  c #EF9E3A",
"P  c #EBA721",
"I  c #F1A92B",
"U  c #EDB52E",
"Y  c #F5B124",
"T  c #F3BA24",
"R  c #F0A43B",
"E  c #F5B83A",
"W  c #F4C301",
"Q  c #F9C501",
"!  c #F4CB01",
"~  c #FACC01",
"^  c #F4C30C",
"/  c #F5CB0C",
"(  c #F9CC09",
")  c #F5D301",
"_  c #FBD301",
"`  c #F6DB02",
"'  c #FCDC01",
"]  c #F6D30B",
"[  c #F9D409",
"{  c #F6DB0B",
"}  c #FADC0A",
"|  c #F9CD1C",
" . c #FCDE16",
".. c #FCD91C",
"X. c #F6E301",
"o. c #FDE301",
"O. c #F7EA02",
"+. c #FEEB01",
"@. c #F7E00B",
"#. c #F9E409",
"$. c #FCEB09",
"%. c #FFF102",
"&. c #FEF10B",
"*. c #FCE21C",
"=. c #FEF21A",
"-. c #F9C527",
";. c #FACD2B",
":. c #FADD27",
">. c #FAD22B",
",. c #F2C13F",
"<. c #F8C53D",
"1. c #F5CA39",
"2. c #F7D23D",
"3. c #FAD73C",
"4. c #FDDB38",
"5. c #FBE426",
"6. c #FEED24",
"7. c #FEEC30",
"8. c #FEEB39",
"9. c #FEF232",
"0. c #FDF03A",
"q. c #E39043",
"w. c #EE9443",
"e. c #EE9D41",
"r. c #E2954C",
"t. c #E59F5E",
"y. c #EEBD4D",
"u. c #E4A150",
"i. c #E4A15C",
"p. c #E9AF5E",
"a. c #EBB95A",
"s. c #E5A263",
"d. c #E6AB66",
"f. c #E7A568",
"g. c #E7AA6E",
"h. c #EBBA6D",
"j. c #F2B56E",
"k. c #F5BF6B",
"l. c #E8AF74",
"z. c #F2AF72",
"x. c #EAB975",
"c. c #EBB27E",
"v. c #FBDF47",
"b. c #F3CC5B",
"n. c #FDEA46",
"m. c #FEF654",
"M. c #F7C361",
"N. c #F9D264",
"B. c #FBD869",
"V. c #F1C972",
"C. c #FCE369",
"Z. c #FBE77D",
"A. c #FEF071",
"S. c #FEF57D",
"D. c #FEF87C",
"F. c #EABD86",
"G. c #EBBA8B",
"H. c #F5BE92",
"J. c #F5C58B",
"K. c #F4D880",
"L. c #F8DE82",
"P. c #F2D798",
"I. c #EEC7A1",
"U. c #EECAA7",
"Y. c #F1D6A3",
"T. c #F0D6B6",
"R. c #F2D8B6",
"E. c None",
/* pixels */
"E.E.E.E.E.E.E.E.E.E.E.E.E.E.E.E.E.E.E.E.E.E.E.E.E.E.E.E.E.E.E.E.E.E.E.E.E.E.E.E.E.E.E.E.E.E.E.E.E.E.E.E.E.E.E.E.E.E.E.E.E.E.E.E.",
"E.E.E.E.E.E.E.E.E.E.E.E.E.E.E.E.E.E.E.E.E.E.E.E.E.E.E.E.E.E.E.E.E.E.E.E.E.E.E.E.E.E.E.E.E.E.E.E.E.E.E.E.E.E.E.E.E.E.E.E.E.E.E.E.",
"E.E.E.E.E.E.E.E.E.E.E.E.E.E.E.E.E.E.E.E.E.E.E.E.E.E.E.E.E.E.E.E.E.E.E.E.E.E.E.E.E.E.E.E.E.E.E.E.E.E.E.E.E.E.E.E.E.E.E.E.E.E.E.E.",
"E.E.E.E.E.E.E.E.E.E.E.E.E.E.E.E.E.E.E.E.E.E.E.E.E.E.K.b.<.Y N s N U y.V.P.E.E.E.E.E.E.E.E.E.E.E.E.E.E.E.E.E.E.E.E.E.E.E.E.E.E.E.",
"E.E.E.E.E.E.E.E.E.E.E.E.E.E.E.E.E.E.E.E.E.E.L.1.B l k s k s s s s a a a 1 1 P a.Y.E.E.E.E.E.E.E.E.E.E.E.E.E.E.E.E.E.E.E.E.E.E.E.",
"E.E.E.E.E.E.E.E.E.E.E.E.E.E.E.E.E.E.E.E.2.Q l l l l k k k k k s s a a a a 1 1 1 ; D h.E.E.E.E.E.E.E.E.E.E.E.E.E.E.E.E.E.E.E.E.E.",
"E.E.E.E.E.E.E.E.E.E.E.E.E.E.E.E.E.E.;.Q Q Q Q z l l z z k k k s s s a a y y 1 < e e w r p.E.E.E.E.E.E.E.E.E.E.E.E.E.E.E.E.E.E.E.",
"E.E.E.E.E.E.E.E.E.E.E.E.E.E.E.E.3.~ Q Q Q Q z l k s s a a s s s s k k k s a 1 < e t t r 6 A x.E.E.E.E.E.E.E.E.E.E.E.E.E.E.E.E.E.",
"E.E.E.E.E.E.E.E.E.E.E.E.E.E.Z.( ~ ~ ~ ~ Q z f d 1 a a s k s k s s k k k l z z x d e r S r r 6 K R.E.E.E.E.E.E.E.E.E.E.E.E.E.E.E.",
"E.E.E.E.E.E.E.E.E.E.E.E.E.v.~ _ ~ ~ ~ x n r n f z z z z z k k k s s s a a a s z Q c b r 0 S S 9 9 F.E.E.E.E.E.E.E.E.E.E.E.E.E.E.",
"E.E.E.E.E.E.E.E.E.E.E.E.:._ _ ~ ~ Q v t n c Q ~ z z z k k k k s k s s a a a 1 2 d x ~ ^ n S r r 0 4 d.E.E.E.E.E.E.E.E.E.E.E.E.E.",
"E.E.E.E.E.E.E.E.E.E.E. ._ _ _ _ x 0 n c ~ ~ ~ z Q z z z k z k k s s s a a a a 2 < w n c ~ x r 0 0 0 = u.E.E.E.E.E.E.E.E.E.E.E.E.",
"E.E.E.E.E.E.E.E.E.E. .' _ _ ( v w N ~ ~ ~ Q Q Q z z z l k k k g s s s a a a a 2 < t t S m ~ ( t 0 0 0 3 u.E.E.E.E.E.E.E.E.E.E.E.",
"E.E.E.E.E.E.E.E.E.5.' ' ' ( e w ^ _ _ ~ ~ ~ Q Q z z l l l k g g k s a s a a 1 2 e e t S S t ^ [ e 9 0 8 . d.E.E.E.E.E.E.E.E.E.E.",
"E.E.E.E.E.E.E.E.n.' ' ' ( q e ( _ _ ~ ~ ~ Q Q Q l z l z k z ` ` k 1 s a a a 1 2 < t t S S r 0 c [ v 8 0 8 . F.E.E.E.E.E.E.E.E.E.",
"E.E.E.E.E.E.E.S.o.o.' [ 6 e [ ' _ _ _ ~ ~ Q Q z z z z z g l #.O.d , a a a a a 2 e t t S S r r 0 B #.e 7 8 8 + R.E.E.E.E.E.E.E.E.",
"E.E.E.E.E.E.E.#.o.o.' q w } ' ' _ _ ~ ~ ~ Q Q Q z z l W / ) X.O./ x l s y y : i 2 t t S S 0 r 0 0 c } w 8 7 3 F E.E.E.E.E.E.E.E.",
"E.E.E.E.E.E.0.o.o.o.v 9 [ ' ' _ _ _ _ ~ ~ Q Q W W ) ` o.O.O.X.X.X.X.` ) W g y < t t t S S r S 0 0 9 ] ] 7 8 8 o l.E.E.E.E.E.E.E.",
"E.E.E.E.E.E.o.o.o.c + / o.o.' ' _ _ ~ ~ ~ Q Q ! ` X.O.O.O.X.X.X.X.` ` ) ) ) j i 2 t t S S r 0 0 0 7 q #.^ 8 8 8 7 E.E.E.E.E.E.E.",
"E.E.E.E.E.6.+.+.} 3 M +.o.' ' _ _ _ ~ ~ Q ~ ) ` X.X.X.X.X.#.X.X.` ` ` ` ) ) ! ! e r t S S 0 S 0 0 0 8 v O.w % 8 o i.E.E.E.E.E.E.",
"E.E.E.E.E.+.o.+.b 5 #.o.o.' ' ' _ ~ _ ~ ~ _ ` ` ` X.X.X.X.X.X.` ` ` ` ) ) ! ! ! Q q r S S S 0 S 0 0 7 7 / ] 7 % % $ E.E.E.E.E.E.",
"E.E.E.E.0.+.+.[ + ^ +.o.' ' ' _ _ _ ~ ~ ! ) ` ` X.` ` ` M i { X.h p ) ) ) ) ! ! ~ f 0 S S S 0 0 0 8 8 8 q $.v % % X g.E.E.E.E.E.",
"E.E.E.E.+.+.+.b 5 +.+.o.o.' ' _ _ _ ~ ~ ) ) ) ` ` ` ` j * h ` ` i , k ) ! ! ! ! Q W - r S 0 0 0 0 0 8 8 7 / ] 7 % % V E.E.E.E.E.",
"E.E.E.S.+.+.#.3 B +.o.o.o.' ' _ _ ~ ~ ! ) ) ) ) ) ` ` > y l ) ` p , u W ! ! ! ! ! Q > 0 S S 0 0 0 8 0 8 8 w $.w $ % o U.E.E.E.E.",
"E.E.E.9.+.%.^ 3 { +.o.o.o.' ' ' _ ~ ~ ! ! ) ) ) ) ) ) q g l ) ` i ; a W ! ! ! ! Q W i 9 S 0 0 0 S 8 8 8 8 7 { j $ % X s.E.E.E.E.",
"E.E.E.&.+.+.e v %.O.o.o.o.' _ _ _ _ _ ~ ! ! ! ) ) ) W > g l ) ) i , a k W ^ c l z l e 3 S S r 0 8 0 8 8 8 7 M @.7 % O F E.E.E.E.",
"E.E.E.+.O.o.3 j %.o.o.o.' ' ' _ _ _ ~ Q ! ! ! ! ! ) ^ > g g ! ) i > a a y ; < > e t 6 r S r 0 0 0 8 8 8 8 $ q &.q $ # # E.E.E.E.",
"E.E.D.%.%.] 3 { +.+.o.o.o.' _ ' _ _ ~ ! ! ! ! ! ! ) ! i i j ! ! i ; s a a a 2 e t t r S r r 0 0 0 0 8 8 8 $ 7 #.b $ # X I.E.E.E.",
"E.E.m.%.%.^ 5 #.+.+.o.o.o.' _ _ _ ! ~ ~ W W ! ! ! ! ! ! p h ! ! i ; a a a 1 < n t t r S S 0 0 0 0 8 8 8 8 % $ ] ^ # %   c.E.E.E.",
"E.E.9.%.%.b q O.+.+.o.o.o.' ' _ _ ~ ~ ~ W ! ! ! ! ! ! ! ! W ! ! i < a a a : ; e t r t S S S 0 0 0 8 8 8 8 % # ^ ] % @   i.E.E.E.",
"E.E.=.+.%.i v %.+.o.o.o.' ' _ _ _ ~ ~ ~ W ! W W W ! W W W ! ! W l c g g a 1 2 e t t S S S 0 0 0 0 8 8 8 8 % $ M @.3 # O r.E.E.E.",
"E.E.&.%.%.e v %.+.o.o.o.o.' ' _ _ ~ ~ ~ Q W W W W W W ! W W W W W W W W l s d e t t r S S S S 0 0 0 8 8 8 % # b @.3 # O G E.E.E.",
"E.E.%.%.%.> b %.+.+.o.' ' ' _ _ _ _ ~ Q Q W W W W W W W W W W W W W l l W j g p w r S S r r A 0 0 8 8 8 % % $ v #.3 # O F E.E.E.",
"E.E.&.%.%.w b %.+.o.o.o.' ' ' _ _ ~ ~ ~ Q Q W W j W j W W l W W W l W j g W W g v w r S r 0 0 0 0 8 8 8 8 % $ v #.3 # O F E.E.E.",
"E.E.=.%.%.e v %.+.o.o.o.o.' ' _ ~ ~ ~ Q Q Q W z l j W W j l l l l l l l l W g g k i 9 r S 0 0 0 0 0 8 8 8 % $ h #.7 $ o q.E.E.E.",
"E.E.9.%.%.v e +.+.o.o.' ' ' _ _ _ ~ ~ ~ ~ Q W z W g l g g g l k g W g j g g l g k s , r 0 r 0 0 8 8 8 8 8 $ # M @.7 $ o r.E.E.E.",
"E.E.m.+.%.h q +.+.+.o.' ' ' _ _ _ ~ ~ ~ Q ~ z z l l l g k s l z u u l g g g g g s k 2 8 S S 0 0 0 8 8 8 8 % # ^ ] # $ X f.E.E.E.",
"E.E.D.%.%.^ 3 X.+.o.o.o.' ' _ _ ~ ~ ~ ~ Q Q Q z l l k l k k g l > ; g g g g g g s s s 4 S 0 0 0 0 8 8 8 % % $ { j # #   G.E.E.E.",
"E.E.E.+.+.{ + ] +.o.o.' ' ' _ _ _ ~ ~ Q Q Q Q z l l l k k g k k > ; u u g g g g s s f = 0 0 0 0 0 8 8 8 % % 7 $.v $ % o E.E.E.E.",
"E.E.E.&.+.+.5 h %.o.o.o.' ' ' _ ~ ~ ( k g g g g g g < k k g g g , ; y y g g g g s f k = 0 0 0 0 8 8 8 8 8 # e $.5 $ # & E.E.E.E.",
"E.E.E.9.+.%.p q +.o.o.' ' ' _ _ _ ~ ( g s g s s g s * f k s g g , , a a s s u u u u s 4 0 S 0 0 8 8 8 8 7 $ j { 7 #   q.E.E.E.E.",
"E.E.E.D.+.+./ + ] o.#.o.' ' _ _ _ ~ ~ g s g s g u u , d k k u k , , a a f s u u f u d 4 0 0 0 0 0 8 8 8 % 7 #.M % %   F.E.E.E.E.",
"E.E.E.E.+.+.o.9 p +.o.o.' ' _ _ ! ~ ~ l u u s u u s < < z s s s , , a s s u u u u s < 7 0 0 0 0 8 8 8 8 % v $.9 $ % O E.E.E.E.E.",
"E.E.E.E.9.+.+.B 4 } o.' ' _ _ _ _ ~ ( z u u u s u u u < a s s s , , s s u f u f u s - 8 S 0 0 8 0 8 8 8 $ ] / % % O H E.E.E.E.E.",
"E.E.E.E.E.+.+.} 3 N +.' ' ' _ _ ~ ~ ~ ( g u u u u f u u d s u u < y u u u s u s s i @ S r 0 0 0 0 8 8 % e $.q % %   E.E.E.E.E.E.",
"E.E.E.E.E.6.o.+.N 3 ) o.' _ _ _ ~ ~ ~ ! l g f u u u u f u s u f s f u f u f s u f 4 0 S r 0 0 0 7 8 8 7 { ^ 7 8 O C E.E.E.E.E.E.",
"E.E.E.E.E.E.o.+.o.q v ' ' _ _ _ _ ~ ~ Q Q l u u f u u u u u u s u f u u u u u d 5 0 S 0 0 0 0 0 9 7 % h #.q 8 8   H.E.E.E.E.E.E.",
"E.E.E.E.E.E.7.o.o.] 7 N o._ _ _ ~ ~ Q Q Q Q l u u u s u u f s u u s u s u f < 3 9 r S r r 0 0 0 8 7 e +.b % 8 @ H E.E.E.E.E.E.E.",
"E.E.E.E.E.E.E.o.o.o.N 3 ^ ' _ _ ~ ~ ~ Q Q z W l k s u u d s s f s s d 2 , 6 6 t r r r S 0 0 0 0 8 w } ^ 8 4 8 O E.E.E.E.E.E.E.E.",
"E.E.E.E.E.E.E.A.o.' ' m 3 / _ ~ ~ ~ ~ Q Q Q z z l k k f a d f s < , ; ; , 2 e t S S S r S 0 0 8 9 ] / 9 8 0   z.E.E.E.E.E.E.E.E.",
"E.E.E.E.E.E.E.E.8.' ' ' e 9 ( _ ~ ~ ~ Q Q W z z l k k k k a s s - , a a 2 2 e S r r r r 0 0 8 0 ( ] A 8 8 @ w.E.E.E.E.E.E.E.E.E.",
"E.E.E.E.E.E.E.E.E.*.' ' [ v 6 c ~ ~ ~ Q Q z z z l l k k k k d 1 , 1 a 1 2 n e t r S r r 0 0 w ( ( q 0 0 @ Z E.E.E.E.E.E.E.E.E.E.",
"E.E.E.E.E.E.E.E.E.E.#._ ' _ m 9 x ~ ~ ~ ~ z l z l z k s k s s a a a a a 2 < t t t S S S 0 n ~ ( w 0 0 8 8 E.E.E.E.E.E.E.E.E.E.E.",
"E.E.E.E.E.E.E.E.E.E.E.} _ _ _ x r n c ~ Q z l z l k z k k s s s a a a a 2 e e t S S r r x [ N r 0 0 8 0 E.E.E.E.E.E.E.E.E.E.E.E.",
"E.E.E.E.E.E.E.E.E.E.E.E...~ _ ~ z t r m z z z z z k k s s s s s a a a 1 2 e e r r r m Q ~ n r 0 0 4 Z E.E.E.E.E.E.E.E.E.E.E.E.E.",
"E.E.E.E.E.E.E.E.E.E.E.E.E.4._ ~ ~ ~ x t t m z l z k z s s k s a a a a 1 2 < e n m c Q N r 0 r r 4 e.E.E.E.E.E.E.E.E.E.E.E.E.E.E.",
"E.E.E.E.E.E.E.E.E.E.E.E.E.E.C.~ ~ ~ ~ z x n e d f k k k k s s a a a 1 a a d x z z x n r r r 6 0 j.E.E.E.E.E.E.E.E.E.E.E.E.E.E.E.",
"E.E.E.E.E.E.E.E.E.E.E.E.E.E.E.E.>.~ ~ Q Q z x s 1 1 a a a s s s s s k z z z k f < t r r r 6 L E.E.E.E.E.E.E.E.E.E.E.E.E.E.E.E.E.",
"E.E.E.E.E.E.E.E.E.E.E.E.E.E.E.E.E.E.| Q Q Q z z z k s s k s s s k k s s a a 1 < e t r 6 J J.E.E.E.E.E.E.E.E.E.E.E.E.E.E.E.E.E.E.",
"E.E.E.E.E.E.E.E.E.E.E.E.E.E.E.E.E.E.E.E.;.z z z z z z k k k k s s a a a a 1 1 2 ; e R E.E.E.E.E.E.E.E.E.E.E.E.E.E.E.E.E.E.E.E.E.",
"E.E.E.E.E.E.E.E.E.E.E.E.E.E.E.E.E.E.E.E.E.E.B.-.z z s k k k k s s s a a 1 1 2 I M.E.E.E.E.E.E.E.E.E.E.E.E.E.E.E.E.E.E.E.E.E.E.E.",
"E.E.E.E.E.E.E.E.E.E.E.E.E.E.E.E.E.E.E.E.E.E.E.E.E.E.N.<.T N f s f m Y E M.E.E.E.E.E.E.E.E.E.E.E.E.E.E.E.E.E.E.E.E.E.E.E.E.E.E.E.",
"E.E.E.E.E.E.E.E.E.E.E.E.E.E.E.E.E.E.E.E.E.E.E.E.E.E.E.E.E.E.E.E.E.E.E.E.E.E.E.E.E.E.E.E.E.E.E.E.E.E.E.E.E.E.E.E.E.E.E.E.E.E.E.E.",
"E.E.E.E.E.E.E.E.E.E.E.E.E.E.E.E.E.E.E.E.E.E.E.E.E.E.E.E.E.E.E.E.E.E.E.E.E.E.E.E.E.E.E.E.E.E.E.E.E.E.E.E.E.E.E.E.E.E.E.E.E.E.E.E."
};
